<svg id="visual" viewBox="0 0 900 600" width="900" height="600" xmlns="http://www.w3.org/2000/svg" xmlns:xlink="http://www.w3.org/1999/xlink" version="1.1"><rect x="0" y="0" width="900" height="600" fill="#191E29"></rect><defs><linearGradient id="grad1_0" x1="33.3%" y1="0%" x2="100%" y2="100%"><stop offset="20%" stop-color="#069e77" stop-opacity="1"></stop><stop offset="80%" stop-color="#069e77" stop-opacity="1"></stop></linearGradient></defs><defs><linearGradient id="grad1_1" x1="33.3%" y1="0%" x2="100%" y2="100%"><stop offset="20%" stop-color="#069e77" stop-opacity="1"></stop><stop offset="80%" stop-color="#007d7b" stop-opacity="1"></stop></linearGradient></defs><defs><linearGradient id="grad1_2" x1="33.3%" y1="0%" x2="100%" y2="100%"><stop offset="20%" stop-color="#005b6d" stop-opacity="1"></stop><stop offset="80%" stop-color="#007d7b" stop-opacity="1"></stop></linearGradient></defs><defs><linearGradient id="grad1_3" x1="33.3%" y1="0%" x2="100%" y2="100%"><stop offset="20%" stop-color="#005b6d" stop-opacity="1"></stop><stop offset="80%" stop-color="#133a4f" stop-opacity="1"></stop></linearGradient></defs><defs><linearGradient id="grad1_4" x1="33.3%" y1="0%" x2="100%" y2="100%"><stop offset="20%" stop-color="#191e29" stop-opacity="1"></stop><stop offset="80%" stop-color="#133a4f" stop-opacity="1"></stop></linearGradient></defs><defs><linearGradient id="grad2_0" x1="0%" y1="0%" x2="66.7%" y2="100%"><stop offset="20%" stop-color="#069e77" stop-opacity="1"></stop><stop offset="80%" stop-color="#069e77" stop-opacity="1"></stop></linearGradient></defs><defs><linearGradient id="grad2_1" x1="0%" y1="0%" x2="66.7%" y2="100%"><stop offset="20%" stop-color="#007d7b" stop-opacity="1"></stop><stop offset="80%" stop-color="#069e77" stop-opacity="1"></stop></linearGradient></defs><defs><linearGradient id="grad2_2" x1="0%" y1="0%" x2="66.7%" y2="100%"><stop offset="20%" stop-color="#007d7b" stop-opacity="1"></stop><stop offset="80%" stop-color="#005b6d" stop-opacity="1"></stop></linearGradient></defs><defs><linearGradient id="grad2_3" x1="0%" y1="0%" x2="66.7%" y2="100%"><stop offset="20%" stop-color="#133a4f" stop-opacity="1"></stop><stop offset="80%" stop-color="#005b6d" stop-opacity="1"></stop></linearGradient></defs><defs><linearGradient id="grad2_4" x1="0%" y1="0%" x2="66.7%" y2="100%"><stop offset="20%" stop-color="#133a4f" stop-opacity="1"></stop><stop offset="80%" stop-color="#191e29" stop-opacity="1"></stop></linearGradient></defs><g transform="translate(900, 0)"><path d="M0 351.5C-31.7 350.9 -63.4 350.3 -91 339.6C-118.6 328.8 -142 308 -168.5 291.9C-195 275.7 -224.4 264.4 -243.2 243.2C-262.1 222.1 -270.4 191.1 -284.9 164.5C-299.4 137.9 -320.1 115.7 -332.3 89C-344.4 62.4 -348 31.2 -351.5 0L0 0Z" fill="#1a2c3c"></path><path d="M0 281.2C-25.4 280.7 -50.7 280.2 -72.8 271.7C-94.9 263.1 -113.6 246.4 -134.8 233.5C-156 220.6 -179.5 211.5 -194.6 194.6C-209.7 177.7 -216.3 152.9 -227.9 131.6C-239.5 110.3 -256.1 92.6 -265.8 71.2C-275.5 49.9 -278.4 24.9 -281.2 0L0 0Z" fill="#004a60"></path><path d="M0 210.9C-19 210.6 -38 210.2 -54.6 203.7C-71.1 197.3 -85.2 184.8 -101.1 175.1C-117 165.4 -134.6 158.6 -145.9 145.9C-157.3 133.2 -162.2 114.7 -171 98.7C-179.7 82.7 -192.1 69.4 -199.4 53.4C-206.6 37.4 -208.8 18.7 -210.9 0L0 0Z" fill="#006c77"></path><path d="M0 140.6C-12.7 140.4 -25.4 140.1 -36.4 135.8C-47.4 131.5 -56.8 123.2 -67.4 116.7C-78 110.3 -89.8 105.8 -97.3 97.3C-104.8 88.8 -108.2 76.4 -114 65.8C-119.8 55.2 -128.1 46.3 -132.9 35.6C-137.8 24.9 -139.2 12.5 -140.6 0L0 0Z" fill="#008e7b"></path><path d="M0 70.3C-6.3 70.2 -12.7 70.1 -18.2 67.9C-23.7 65.8 -28.4 61.6 -33.7 58.4C-39 55.1 -44.9 52.9 -48.6 48.6C-52.4 44.4 -54.1 38.2 -57 32.9C-59.9 27.6 -64 23.1 -66.5 17.8C-68.9 12.5 -69.6 6.2 -70.3 0L0 0Z" fill="#069e77"></path></g><g transform="translate(0, 600)"><path d="M0 -351.5C32.7 -351.9 65.3 -352.4 90.3 -337.1C115.3 -321.9 132.7 -291 159.5 -276.3C186.3 -261.6 222.5 -263.1 248.6 -248.6C274.6 -234.1 290.5 -203.5 301.4 -174C312.2 -144.5 318 -116 325.5 -87.2C333 -58.4 342.3 -29.2 351.5 0L0 0Z" fill="#1a2c3c"></path><path d="M0 -281.2C26.1 -281.6 52.3 -281.9 72.3 -269.7C92.3 -257.5 106.2 -232.8 127.6 -221C149 -209.3 178 -210.5 198.9 -198.9C219.7 -187.2 232.4 -162.8 241.1 -139.2C249.8 -115.6 254.4 -92.8 260.4 -69.8C266.4 -46.7 273.8 -23.4 281.2 0L0 0Z" fill="#004a60"></path><path d="M0 -210.9C19.6 -211.2 39.2 -211.4 54.2 -202.3C69.2 -193.1 79.6 -174.6 95.7 -165.8C111.8 -156.9 133.5 -157.9 149.1 -149.1C164.8 -140.4 174.3 -122.1 180.8 -104.4C187.3 -86.7 190.8 -69.6 195.3 -52.3C199.8 -35 205.4 -17.5 210.9 0L0 0Z" fill="#006c77"></path><path d="M0 -140.6C13.1 -140.8 26.1 -140.9 36.1 -134.8C46.1 -128.7 53.1 -116.4 63.8 -110.5C74.5 -104.6 89 -105.2 99.4 -99.4C109.9 -93.6 116.2 -81.4 120.6 -69.6C124.9 -57.8 127.2 -46.4 130.2 -34.9C133.2 -23.4 136.9 -11.7 140.6 0L0 0Z" fill="#008e7b"></path><path d="M0 -70.3C6.5 -70.4 13.1 -70.5 18.1 -67.4C23.1 -64.4 26.5 -58.2 31.9 -55.3C37.3 -52.3 44.5 -52.6 49.7 -49.7C54.9 -46.8 58.1 -40.7 60.3 -34.8C62.4 -28.9 63.6 -23.2 65.1 -17.4C66.6 -11.7 68.5 -5.8 70.3 0L0 0Z" fill="#069e77"></path></g></svg>