<svg id="visual" viewBox="0 0 900 600" width="900" height="600" xmlns="http://www.w3.org/2000/svg" xmlns:xlink="http://www.w3.org/1999/xlink" version="1.1"><rect x="0" y="0" width="900" height="600" fill="#191E29"></rect><g transform="translate(435.9045014904343 308.0934680558696)"><path d="M162 -182.7C199.2 -161.8 211.4 -100.6 223.5 -38.4C235.6 23.7 247.7 86.9 219 116.9C190.3 147 120.8 144 65.7 151.4C10.6 158.8 -30.1 176.7 -78.3 176.1C-126.6 175.5 -182.4 156.5 -200.8 118.8C-219.2 81 -200.2 24.5 -189.2 -32.6C-178.2 -89.7 -175.2 -147.5 -145 -169.7C-114.8 -191.9 -57.4 -178.4 2.5 -181.4C62.4 -184.3 124.7 -203.6 162 -182.7" fill="#069e77"></path></g></svg>