<svg id="visual" viewBox="0 0 960 300" width="960" height="300" xmlns="http://www.w3.org/2000/svg" xmlns:xlink="http://www.w3.org/1999/xlink" version="1.1"><rect x="0" y="0" width="960" height="300" fill="#191E29"></rect><path d="M0 222L22.8 218C45.7 214 91.3 206 137 200C182.7 194 228.3 190 274 193.3C319.7 196.7 365.3 207.3 411.2 206.8C457 206.3 503 194.7 548.8 192C594.7 189.3 640.3 195.7 686 194.3C731.7 193 777.3 184 823 180.7C868.7 177.3 914.3 179.7 937.2 180.8L960 182L960 301L937.2 301C914.3 301 868.7 301 823 301C777.3 301 731.7 301 686 301C640.3 301 594.7 301 548.8 301C503 301 457 301 411.2 301C365.3 301 319.7 301 274 301C228.3 301 182.7 301 137 301C91.3 301 45.7 301 22.8 301L0 301Z" fill="#132d46"></path><path d="M0 201L22.8 206.7C45.7 212.3 91.3 223.7 137 223.2C182.7 222.7 228.3 210.3 274 207.8C319.7 205.3 365.3 212.7 411.2 218C457 223.3 503 226.7 548.8 229.8C594.7 233 640.3 236 686 236.8C731.7 237.7 777.3 236.3 823 235.7C868.7 235 914.3 235 937.2 235L960 235L960 301L937.2 301C914.3 301 868.7 301 823 301C777.3 301 731.7 301 686 301C640.3 301 594.7 301 548.8 301C503 301 457 301 411.2 301C365.3 301 319.7 301 274 301C228.3 301 182.7 301 137 301C91.3 301 45.7 301 22.8 301L0 301Z" fill="#0d506b"></path><path d="M0 241L22.8 237.3C45.7 233.7 91.3 226.3 137 226.5C182.7 226.7 228.3 234.3 274 239.5C319.7 244.7 365.3 247.3 411.2 248.8C457 250.3 503 250.7 548.8 245.3C594.7 240 640.3 229 686 224.7C731.7 220.3 777.3 222.7 823 226.5C868.7 230.3 914.3 235.7 937.2 238.3L960 241L960 301L937.2 301C914.3 301 868.7 301 823 301C777.3 301 731.7 301 686 301C640.3 301 594.7 301 548.8 301C503 301 457 301 411.2 301C365.3 301 319.7 301 274 301C228.3 301 182.7 301 137 301C91.3 301 45.7 301 22.8 301L0 301Z" fill="#00768b"></path><path d="M0 240L22.8 244.2C45.7 248.3 91.3 256.7 137 261.7C182.7 266.7 228.3 268.3 274 269.2C319.7 270 365.3 270 411.2 269.3C457 268.7 503 267.3 548.8 265.7C594.7 264 640.3 262 686 262.7C731.7 263.3 777.3 266.7 823 264.2C868.7 261.7 914.3 253.3 937.2 249.2L960 245L960 301L937.2 301C914.3 301 868.7 301 823 301C777.3 301 731.7 301 686 301C640.3 301 594.7 301 548.8 301C503 301 457 301 411.2 301C365.3 301 319.7 301 274 301C228.3 301 182.7 301 137 301C91.3 301 45.7 301 22.8 301L0 301Z" fill="#009e9b"></path><path d="M0 268L22.8 270.5C45.7 273 91.3 278 137 277.2C182.7 276.3 228.3 269.7 274 269C319.7 268.3 365.3 273.7 411.2 276C457 278.3 503 277.7 548.8 277.7C594.7 277.7 640.3 278.3 686 278C731.7 277.7 777.3 276.3 823 276.7C868.7 277 914.3 279 937.2 280L960 281L960 301L937.2 301C914.3 301 868.7 301 823 301C777.3 301 731.7 301 686 301C640.3 301 594.7 301 548.8 301C503 301 457 301 411.2 301C365.3 301 319.7 301 274 301C228.3 301 182.7 301 137 301C91.3 301 45.7 301 22.8 301L0 301Z" fill="#01c38d"></path></svg>