<svg id="visual" viewBox="0 0 960 360" width="960" height="360" xmlns="http://www.w3.org/2000/svg" xmlns:xlink="http://www.w3.org/1999/xlink" version="1.1"><path d="M0 109L13.3 104.2C26.7 99.3 53.3 89.7 80 84.8C106.7 80 133.3 80 160 84.8C186.7 89.7 213.3 99.3 240 98.2C266.7 97 293.3 85 320 80.2C346.7 75.3 373.3 77.7 400 80C426.7 82.3 453.3 84.7 480 88.8C506.7 93 533.3 99 560 105C586.7 111 613.3 117 640 111.7C666.7 106.3 693.3 89.7 720 80.2C746.7 70.7 773.3 68.3 800 67.7C826.7 67 853.3 68 880 75.8C906.7 83.7 933.3 98.3 946.7 105.7L960 113L960 0L946.7 0C933.3 0 906.7 0 880 0C853.3 0 826.7 0 800 0C773.3 0 746.7 0 720 0C693.3 0 666.7 0 640 0C613.3 0 586.7 0 560 0C533.3 0 506.7 0 480 0C453.3 0 426.7 0 400 0C373.3 0 346.7 0 320 0C293.3 0 266.7 0 240 0C213.3 0 186.7 0 160 0C133.3 0 106.7 0 80 0C53.3 0 26.7 0 13.3 0L0 0Z" fill="#191e29"></path><path d="M0 131L13.3 130.3C26.7 129.7 53.3 128.3 80 126.5C106.7 124.7 133.3 122.3 160 124.7C186.7 127 213.3 134 240 131C266.7 128 293.3 115 320 112.7C346.7 110.3 373.3 118.7 400 124C426.7 129.3 453.3 131.7 480 132.8C506.7 134 533.3 134 560 137C586.7 140 613.3 146 640 143.7C666.7 141.3 693.3 130.7 720 121.7C746.7 112.7 773.3 105.3 800 104.7C826.7 104 853.3 110 880 119C906.7 128 933.3 140 946.7 146L960 152L960 111L946.7 103.7C933.3 96.3 906.7 81.7 880 73.8C853.3 66 826.7 65 800 65.7C773.3 66.3 746.7 68.7 720 78.2C693.3 87.7 666.7 104.3 640 109.7C613.3 115 586.7 109 560 103C533.3 97 506.7 91 480 86.8C453.3 82.7 426.7 80.3 400 78C373.3 75.7 346.7 73.3 320 78.2C293.3 83 266.7 95 240 96.2C213.3 97.3 186.7 87.7 160 82.8C133.3 78 106.7 78 80 82.8C53.3 87.7 26.7 97.3 13.3 102.2L0 107Z" fill="#0f5063"></path><path d="M0 156L13.3 154.8C26.7 153.7 53.3 151.3 80 150.7C106.7 150 133.3 151 160 155.7C186.7 160.3 213.3 168.7 240 165.2C266.7 161.7 293.3 146.3 320 142.8C346.7 139.3 373.3 147.7 400 151.8C426.7 156 453.3 156 480 157.2C506.7 158.3 533.3 160.7 560 165.5C586.7 170.3 613.3 177.7 640 173.5C666.7 169.3 693.3 153.7 720 142.2C746.7 130.7 773.3 123.3 800 123.3C826.7 123.3 853.3 130.7 880 140.3C906.7 150 933.3 162 946.7 168L960 174L960 150L946.7 144C933.3 138 906.7 126 880 117C853.3 108 826.7 102 800 102.7C773.3 103.3 746.7 110.7 720 119.7C693.3 128.7 666.7 139.3 640 141.7C613.3 144 586.7 138 560 135C533.3 132 506.7 132 480 130.8C453.3 129.7 426.7 127.3 400 122C373.3 116.7 346.7 108.3 320 110.7C293.3 113 266.7 126 240 129C213.3 132 186.7 125 160 122.7C133.3 120.3 106.7 122.7 80 124.5C53.3 126.3 26.7 127.7 13.3 128.3L0 129Z" fill="#00887e"></path><path d="M0 221L13.3 218.5C26.7 216 53.3 211 80 205.5C106.7 200 133.3 194 160 199.5C186.7 205 213.3 222 240 221.5C266.7 221 293.3 203 320 196.3C346.7 189.7 373.3 194.3 400 194.8C426.7 195.3 453.3 191.7 480 198.3C506.7 205 533.3 222 560 231C586.7 240 613.3 241 640 235C666.7 229 693.3 216 720 205.8C746.7 195.7 773.3 188.3 800 185.3C826.7 182.3 853.3 183.7 880 193.3C906.7 203 933.3 221 946.7 230L960 239L960 172L946.7 166C933.3 160 906.7 148 880 138.3C853.3 128.7 826.7 121.3 800 121.3C773.3 121.3 746.7 128.7 720 140.2C693.3 151.7 666.7 167.3 640 171.5C613.3 175.7 586.7 168.3 560 163.5C533.3 158.7 506.7 156.3 480 155.2C453.3 154 426.7 154 400 149.8C373.3 145.7 346.7 137.3 320 140.8C293.3 144.3 266.7 159.7 240 163.2C213.3 166.7 186.7 158.3 160 153.7C133.3 149 106.7 148 80 148.7C53.3 149.3 26.7 151.7 13.3 152.8L0 154Z" fill="#069e77"></path><path d="M0 253L13.3 249.3C26.7 245.7 53.3 238.3 80 231.2C106.7 224 133.3 217 160 223.7C186.7 230.3 213.3 250.7 240 250C266.7 249.3 293.3 227.7 320 221C346.7 214.3 373.3 222.7 400 225.2C426.7 227.7 453.3 224.3 480 229.8C506.7 235.3 533.3 249.7 560 256.8C586.7 264 613.3 264 640 258C666.7 252 693.3 240 720 233.3C746.7 226.7 773.3 225.3 800 221.2C826.7 217 853.3 210 880 216.7C906.7 223.3 933.3 243.7 946.7 253.8L960 264L960 237L946.7 228C933.3 219 906.7 201 880 191.3C853.3 181.7 826.7 180.3 800 183.3C773.3 186.3 746.7 193.7 720 203.8C693.3 214 666.7 227 640 233C613.3 239 586.7 238 560 229C533.3 220 506.7 203 480 196.3C453.3 189.7 426.7 193.3 400 192.8C373.3 192.3 346.7 187.7 320 194.3C293.3 201 266.7 219 240 219.5C213.3 220 186.7 203 160 197.5C133.3 192 106.7 198 80 203.5C53.3 209 26.7 214 13.3 216.5L0 219Z" fill="#00887e"></path><path d="M0 332L13.3 332.7C26.7 333.3 53.3 334.7 80 332.3C106.7 330 133.3 324 160 324C186.7 324 213.3 330 240 329.3C266.7 328.7 293.3 321.3 320 316.5C346.7 311.7 373.3 309.3 400 310C426.7 310.7 453.3 314.3 480 316.2C506.7 318 533.3 318 560 318.5C586.7 319 613.3 320 640 317.5C666.7 315 693.3 309 720 307.3C746.7 305.7 773.3 308.3 800 313.8C826.7 319.3 853.3 327.7 880 330.7C906.7 333.7 933.3 331.3 946.7 330.2L960 329L960 262L946.7 251.8C933.3 241.7 906.7 221.3 880 214.7C853.3 208 826.7 215 800 219.2C773.3 223.3 746.7 224.7 720 231.3C693.3 238 666.7 250 640 256C613.3 262 586.7 262 560 254.8C533.3 247.7 506.7 233.3 480 227.8C453.3 222.3 426.7 225.7 400 223.2C373.3 220.7 346.7 212.3 320 219C293.3 225.7 266.7 247.3 240 248C213.3 248.7 186.7 228.3 160 221.7C133.3 215 106.7 222 80 229.2C53.3 236.3 26.7 243.7 13.3 247.3L0 251Z" fill="#0f5063"></path><path d="M0 361L13.3 361C26.7 361 53.3 361 80 361C106.7 361 133.3 361 160 361C186.7 361 213.3 361 240 361C266.7 361 293.3 361 320 361C346.7 361 373.3 361 400 361C426.7 361 453.3 361 480 361C506.7 361 533.3 361 560 361C586.7 361 613.3 361 640 361C666.7 361 693.3 361 720 361C746.7 361 773.3 361 800 361C826.7 361 853.3 361 880 361C906.7 361 933.3 361 946.7 361L960 361L960 327L946.7 328.2C933.3 329.3 906.7 331.7 880 328.7C853.3 325.7 826.7 317.3 800 311.8C773.3 306.3 746.7 303.7 720 305.3C693.3 307 666.7 313 640 315.5C613.3 318 586.7 317 560 316.5C533.3 316 506.7 316 480 314.2C453.3 312.3 426.7 308.7 400 308C373.3 307.3 346.7 309.7 320 314.5C293.3 319.3 266.7 326.7 240 327.3C213.3 328 186.7 322 160 322C133.3 322 106.7 328 80 330.3C53.3 332.7 26.7 331.3 13.3 330.7L0 330Z" fill="#191e29"></path></svg>