<svg id="visual" viewBox="0 0 960 300" width="960" height="300" xmlns="http://www.w3.org/2000/svg" xmlns:xlink="http://www.w3.org/1999/xlink" version="1.1"><rect x="0" y="0" width="960" height="300" fill="#191E29"></rect><path d="M0 123L22.8 119.8C45.7 116.7 91.3 110.3 137 108C182.7 105.7 228.3 107.3 274 109.8C319.7 112.3 365.3 115.7 411.2 111.3C457 107 503 95 548.8 92.8C594.7 90.7 640.3 98.3 686 102C731.7 105.7 777.3 105.3 823 106.7C868.7 108 914.3 111 937.2 112.5L960 114L960 0L937.2 0C914.3 0 868.7 0 823 0C777.3 0 731.7 0 686 0C640.3 0 594.7 0 548.8 0C503 0 457 0 411.2 0C365.3 0 319.7 0 274 0C228.3 0 182.7 0 137 0C91.3 0 45.7 0 22.8 0L0 0Z" fill="#132d46"></path><path d="M0 101L22.8 98.8C45.7 96.7 91.3 92.3 137 90.2C182.7 88 228.3 88 274 85.5C319.7 83 365.3 78 411.2 77.3C457 76.7 503 80.3 548.8 82.8C594.7 85.3 640.3 86.7 686 89.3C731.7 92 777.3 96 823 96.2C868.7 96.3 914.3 92.7 937.2 90.8L960 89L960 0L937.2 0C914.3 0 868.7 0 823 0C777.3 0 731.7 0 686 0C640.3 0 594.7 0 548.8 0C503 0 457 0 411.2 0C365.3 0 319.7 0 274 0C228.3 0 182.7 0 137 0C91.3 0 45.7 0 22.8 0L0 0Z" fill="#0d506b"></path><path d="M0 59L22.8 62C45.7 65 91.3 71 137 74.3C182.7 77.7 228.3 78.3 274 75C319.7 71.7 365.3 64.3 411.2 63.7C457 63 503 69 548.8 69.3C594.7 69.7 640.3 64.3 686 62C731.7 59.7 777.3 60.3 823 57.8C868.7 55.3 914.3 49.7 937.2 46.8L960 44L960 0L937.2 0C914.3 0 868.7 0 823 0C777.3 0 731.7 0 686 0C640.3 0 594.7 0 548.8 0C503 0 457 0 411.2 0C365.3 0 319.7 0 274 0C228.3 0 182.7 0 137 0C91.3 0 45.7 0 22.8 0L0 0Z" fill="#00768b"></path><path d="M0 44L22.8 43.2C45.7 42.3 91.3 40.7 137 43C182.7 45.3 228.3 51.7 274 52.5C319.7 53.3 365.3 48.7 411.2 46.8C457 45 503 46 548.8 45.2C594.7 44.3 640.3 41.7 686 42.5C731.7 43.3 777.3 47.7 823 46.5C868.7 45.3 914.3 38.7 937.2 35.3L960 32L960 0L937.2 0C914.3 0 868.7 0 823 0C777.3 0 731.7 0 686 0C640.3 0 594.7 0 548.8 0C503 0 457 0 411.2 0C365.3 0 319.7 0 274 0C228.3 0 182.7 0 137 0C91.3 0 45.7 0 22.8 0L0 0Z" fill="#009e9b"></path><path d="M0 20L22.8 21.8C45.7 23.7 91.3 27.3 137 27C182.7 26.7 228.3 22.3 274 20.5C319.7 18.7 365.3 19.3 411.2 20.3C457 21.3 503 22.7 548.8 21.7C594.7 20.7 640.3 17.3 686 18.5C731.7 19.7 777.3 25.3 823 28C868.7 30.7 914.3 30.3 937.2 30.2L960 30L960 0L937.2 0C914.3 0 868.7 0 823 0C777.3 0 731.7 0 686 0C640.3 0 594.7 0 548.8 0C503 0 457 0 411.2 0C365.3 0 319.7 0 274 0C228.3 0 182.7 0 137 0C91.3 0 45.7 0 22.8 0L0 0Z" fill="#01c38d"></path></svg>