<svg id="visual" viewBox="0 0 960 200" width="960" height="200" xmlns="http://www.w3.org/2000/svg" xmlns:xlink="http://www.w3.org/1999/xlink" version="1.1"><rect x="0" y="0" width="960" height="200" fill="#191E29"></rect><path d="M0 58L20 62.5C40 67 80 76 120 73.2C160 70.3 200 55.7 240 49.3C280 43 320 45 360 49.3C400 53.7 440 60.3 480 61.5C520 62.7 560 58.3 600 61C640 63.7 680 73.3 720 77.7C760 82 800 81 840 77.2C880 73.3 920 66.7 940 63.3L960 60L960 201L940 201C920 201 880 201 840 201C800 201 760 201 720 201C680 201 640 201 600 201C560 201 520 201 480 201C440 201 400 201 360 201C320 201 280 201 240 201C200 201 160 201 120 201C80 201 40 201 20 201L0 201Z" fill="#132d46"></path><path d="M0 84L20 82.8C40 81.7 80 79.3 120 83.2C160 87 200 97 240 98C280 99 320 91 360 91C400 91 440 99 480 104.3C520 109.7 560 112.3 600 105.8C640 99.3 680 83.7 720 82.2C760 80.7 800 93.3 840 98.5C880 103.7 920 101.3 940 100.2L960 99L960 201L940 201C920 201 880 201 840 201C800 201 760 201 720 201C680 201 640 201 600 201C560 201 520 201 480 201C440 201 400 201 360 201C320 201 280 201 240 201C200 201 160 201 120 201C80 201 40 201 20 201L0 201Z" fill="#0d506b"></path><path d="M0 106L20 104.2C40 102.3 80 98.7 120 100.2C160 101.7 200 108.3 240 110C280 111.7 320 108.3 360 110.7C400 113 440 121 480 121.5C520 122 560 115 600 115.3C640 115.7 680 123.3 720 122.3C760 121.3 800 111.7 840 109C880 106.3 920 110.7 940 112.8L960 115L960 201L940 201C920 201 880 201 840 201C800 201 760 201 720 201C680 201 640 201 600 201C560 201 520 201 480 201C440 201 400 201 360 201C320 201 280 201 240 201C200 201 160 201 120 201C80 201 40 201 20 201L0 201Z" fill="#00768b"></path><path d="M0 139L20 141.2C40 143.3 80 147.7 120 144.7C160 141.7 200 131.3 240 128.2C280 125 320 129 360 130C400 131 440 129 480 133.2C520 137.3 560 147.7 600 148.2C640 148.7 680 139.3 720 136.5C760 133.7 800 137.3 840 140.3C880 143.3 920 145.7 940 146.8L960 148L960 201L940 201C920 201 880 201 840 201C800 201 760 201 720 201C680 201 640 201 600 201C560 201 520 201 480 201C440 201 400 201 360 201C320 201 280 201 240 201C200 201 160 201 120 201C80 201 40 201 20 201L0 201Z" fill="#009e9b"></path><path d="M0 165L20 163.5C40 162 80 159 120 159.2C160 159.3 200 162.7 240 162.2C280 161.7 320 157.3 360 157.7C400 158 440 163 480 162.7C520 162.3 560 156.7 600 157.5C640 158.3 680 165.7 720 167.3C760 169 800 165 840 161.8C880 158.7 920 156.3 940 155.2L960 154L960 201L940 201C920 201 880 201 840 201C800 201 760 201 720 201C680 201 640 201 600 201C560 201 520 201 480 201C440 201 400 201 360 201C320 201 280 201 240 201C200 201 160 201 120 201C80 201 40 201 20 201L0 201Z" fill="#01c38d"></path></svg>